HIERARCHY
ROOT Hips
{
	OFFSET 0.00000 0.00000 0.00000
	CHANNELS 6 Xposition Yposition Zposition Zrotation Yrotation Xrotation 
	JOINT LHipJoint
	{
		OFFSET 0 0 0
		CHANNELS 3 Zrotation Yrotation Xrotation
		JOINT LeftUpLeg
		{
			OFFSET 1.53139 -1.83434 0.76626
			CHANNELS 3 Zrotation Yrotation Xrotation
			JOINT LeftLeg
			{
				OFFSET 2.56112 -7.03663 0.00000
				CHANNELS 3 Zrotation Yrotation Xrotation
				JOINT LeftFoot
				{
					OFFSET 2.59983 -7.14299 0.00000
					CHANNELS 3 Zrotation Yrotation Xrotation
					JOINT LeftToeBase
					{
						OFFSET 0.13742 -0.37757 2.00054
						CHANNELS 3 Zrotation Yrotation Xrotation
						End Site
						{
							OFFSET 0.00000 -0.00000 1.02897
						}
					}
				}
			}
		}
	}
	JOINT RHipJoint
	{
		OFFSET 0 0 0
		CHANNELS 3 Zrotation Yrotation Xrotation
		JOINT RightUpLeg
		{
			OFFSET -1.40122 -1.83435 0.76627
			CHANNELS 3 Zrotation Yrotation Xrotation
			JOINT RightLeg
			{
				OFFSET -2.54052 -6.98003 0.00000
				CHANNELS 3 Zrotation Yrotation Xrotation
				JOINT RightFoot
				{
					OFFSET -2.63179 -7.23079 0.00000
					CHANNELS 3 Zrotation Yrotation Xrotation
					JOINT RightToeBase
					{
						OFFSET -0.24131 -0.66299 2.03908
						CHANNELS 3 Zrotation Yrotation Xrotation
						End Site
						{
							OFFSET -0.00000 -0.00000 1.07391
						}
					}
				}
			}
		}
	}
	JOINT LowerBack
	{
		OFFSET 0 0 0
		CHANNELS 3 Zrotation Yrotation Xrotation
		JOINT Spine
		{
			OFFSET 0.01174 2.10302 -0.29778
			CHANNELS 3 Zrotation Yrotation Xrotation
			JOINT Spine1
			{
				OFFSET 0.00772 2.13227 -0.01247
				CHANNELS 3 Zrotation Yrotation Xrotation
				JOINT Neck
				{
					OFFSET 0 0 0
					CHANNELS 3 Zrotation Yrotation Xrotation
					JOINT Neck1
					{
						OFFSET -0.09219 1.60848 0.31481
						CHANNELS 3 Zrotation Yrotation Xrotation
						JOINT Head
						{
							OFFSET 0.13974 1.65456 -0.31134
							CHANNELS 3 Zrotation Yrotation Xrotation
							End Site
							{
								OFFSET 0.04742 1.69515 -0.14578
							}
						}
					}
				}
				JOINT LeftShoulder
				{
					OFFSET 0 0 0
					CHANNELS 3 Zrotation Yrotation Xrotation
					JOINT LeftArm
					{
						OFFSET 3.24909 1.02882 -0.23993
						CHANNELS 3 Zrotation Yrotation Xrotation
						JOINT LeftForeArm
						{
							OFFSET 5.32955 -0.00000 -0.00000
							CHANNELS 3 Zrotation Yrotation Xrotation
							JOINT LeftHand
							{
								OFFSET 3.69232 -0.00000 -0.00000
								CHANNELS 3 Zrotation Yrotation Xrotation
								JOINT LeftFingerBase
								{
									OFFSET 0 0 0
									CHANNELS 3 Zrotation Yrotation Xrotation
									JOINT LeftHandIndex1
									{
										OFFSET 0.53660 -0.00000 -0.00000
										CHANNELS 3 Zrotation Yrotation Xrotation
										End Site
										{
											OFFSET 0.43262 -0.00000 -0.00000
										}
									}
								}
								JOINT LThumb
								{
									OFFSET 0 0 0
									CHANNELS 3 Zrotation Yrotation Xrotation
									End Site
									{
										OFFSET 0.43922 -0.00000 0.43922
									}
								}
							}
						}
					}
				}
				JOINT RightShoulder
				{
					OFFSET 0 0 0
					CHANNELS 3 Zrotation Yrotation Xrotation
					JOINT RightArm
					{
						OFFSET -3.21387 0.93002 -0.34594
						CHANNELS 3 Zrotation Yrotation Xrotation
						JOINT RightForeArm
						{
							OFFSET -5.23431 -0.00000 0.00000
							CHANNELS 3 Zrotation Yrotation Xrotation
							JOINT RightHand
							{
								OFFSET -3.55301 -0.00000 -0.00000
								CHANNELS 3 Zrotation Yrotation Xrotation
								JOINT RightFingerBase
								{
									OFFSET 0 0 0
									CHANNELS 3 Zrotation Yrotation Xrotation
									JOINT RightHandIndex1
									{
										OFFSET -0.77252 -0.00000 -0.00000
										CHANNELS 3 Zrotation Yrotation Xrotation
										End Site
										{
											OFFSET -0.62283 -0.00000 -0.00000
										}
									}
								}
								JOINT RThumb
								{
									OFFSET 0 0 0
									CHANNELS 3 Zrotation Yrotation Xrotation
									End Site
									{
										OFFSET -0.63234 -0.00000 0.63234
									}
								}
							}
						}
					}
				}
			}
		}
	}
}
MOTION
Frames: 6
Frame Time: 0.0555556
0.00 0.00 0.00 174.7560 127.7850 188.6750 0.0000 0.0000 0.0000 -16.4256 -4.9193 -25.1038 1.5419 7.8384 22.2244 0.1446 -0.9397 -6.9119 0.0009 -0.1984 -0.5452 0.0000 0.0000 0.0000 16.5042 -2.0368 -22.4890 -6.3801 -14.7868 46.4886 0.0427 -3.9809 -3.1088 -0.0015 -0.2529 0.6950 -7.2029 1.9629 22.1089 -0.1663 1.1801 5.9520 3.6061 0.7156 -5.9229 -14.2936 -10.5969 -15.9253 19.4425 -16.1216 22.3269 7.0939 -6.3474 13.0873 -0.0000 -0.0000 0.0000 -62.9394 -16.5952 67.8684 90.8208 -59.9975 -60.7108 -0.0000 -0.0000 1.1907 24.6454 28.0460 12.1731 -7.1250 0.0000 -0.0000 -6.8439 60.2260 -2.5490 -0.0000 -0.0000 0.0000 79.6977 3.4813 52.7573 -93.4465 59.9551 -62.9843 0.0000 -0.0000 -6.2921 -20.9233 9.8925 -3.7580 7.1250 -0.0000 -0.0000 4.3173 -19.4200 2.6437
0.00 0.00 0.00 181.3670 143.5230 184.8500 0.0000 0.0000 0.0000 -18.7698 0.9684 -12.6151 1.9420 8.7443 24.9986 0.0282 9.4170 -13.8968 0.1048 -2.0872 -5.7467 0.0000 0.0000 0.0000 13.7664 -8.9947 -24.0856 -3.7395 -11.8054 35.0469 0.3511 -14.7860 -16.6017 -0.2329 -3.1059 8.5737 -7.3372 0.1955 17.5506 -0.3207 -1.0627 2.9467 4.0615 -0.3338 -6.5265 -16.1461 -13.8715 -12.5742 21.6042 -21.7362 21.8746 7.1113 -9.0090 14.0493 -0.0000 0.0000 0.0000 -65.3888 -7.2934 67.6146 103.5928 -59.2902 -71.7437 -0.0000 -0.0000 11.2912 29.7933 27.1460 14.6403 -7.1250 0.0000 -0.0000 -0.4509 60.5552 -0.1710 -0.0000 0.0000 0.0000 82.7344 -2.2848 61.4184 -101.3028 59.5117 -69.7724 0.0000 -0.0000 -24.3716 -24.0992 9.4984 -4.2216 7.1250 -0.0000 -0.0000 2.0416 -19.5967 1.2394
0.00 0.00 0.00 180.7500 162.7000 179.2580 0.0000 0.0000 0.0000 -11.2981 3.9465 -8.8572 4.4481 12.7339 38.3804 -1.3809 20.2694 -6.9261 0.0590 1.5680 4.3131 0.0000 0.0000 0.0000 20.6498 -6.8900 -13.1213 -2.4267 -9.7034 28.0213 -0.5353 -5.7140 -17.0856 -0.0349 -1.2051 3.3133 -5.6684 -0.0959 14.0407 0.2651 -0.9728 1.4340 3.6756 -0.3214 -6.2593 -16.3239 -13.6805 -10.7639 19.2214 -21.5385 23.9344 6.3969 -9.2493 14.0812 0.0000 0.0000 0.0000 -70.4906 1.2997 62.3429 104.5073 -59.1896 -72.5295 -0.0000 -0.0000 4.6440 24.7322 26.0080 11.4192 -7.1250 0.0000 -0.0000 -5.7966 58.1297 -1.8662 0.0000 0.0000 0.0000 79.5831 -4.2169 62.4069 -103.9622 59.2504 -72.0612 0.0000 -0.0000 -27.8059 -21.8602 9.0341 -3.6046 7.1250 -0.0000 -0.0000 3.6305 -20.2680 2.1523
0.00 0.00 0.00 180.3910 197.4430 178.1550 0.0000 0.0000 0.0000 -16.6177 -10.2038 -19.6244 1.6197 8.0244 22.7881 -0.0236 -6.9635 -4.2877 0.6603 -5.1973 -14.4720 0.0000 0.0000 0.0000 27.0581 2.6382 5.7681 -1.4485 -7.6080 21.5296 -0.9493 6.9352 -17.3930 -0.1290 -2.3150 6.3771 -0.0046 -0.1440 10.5610 1.4293 -0.1219 0.7667 1.5135 -0.0477 -5.1216 -15.1173 -10.4163 -12.3849 14.5363 -16.0086 27.2517 5.5618 -7.1092 13.8167 -0.0000 0.0000 0.0000 -76.5225 3.5901 63.7118 108.1289 -58.7210 -75.6327 -0.0000 -0.0000 9.8527 29.3752 20.8129 11.3104 -7.1250 0.0000 -0.0000 0.8350 53.5450 0.1755 -0.0000 0.0000 0.0000 77.2537 -4.6844 58.5658 -112.6869 57.9630 -79.5131 0.0000 -0.0000 -16.9207 -24.9533 14.3353 -6.5721 7.1250 -0.0000 -0.0000 1.7184 -14.2435 1.2433
0.00 0.00 0.00 179.6830 212.4440 180.2120 0.0000 0.0000 0.0000 -18.6368 -9.8060 -18.4504 1.5551 7.8705 22.3214 -0.0980 -5.6896 0.7095 0.0250 -1.0207 -2.8056 0.0000 0.0000 0.0000 24.4021 1.6514 12.1093 -1.6414 -8.0754 22.9434 0.5928 16.2976 -3.7934 -0.2125 -2.9679 8.1894 -0.0544 1.1688 10.0600 1.1224 1.5896 0.9572 0.9782 0.7907 -4.6774 -13.7415 -8.6530 -13.4485 11.8078 -13.4720 32.0257 4.8586 -6.1433 15.2848 0.0000 0.0000 0.0000 -76.3776 7.0479 60.2917 107.6379 -58.7913 -75.2128 -0.0000 -0.0000 12.1224 23.2974 17.2417 7.2736 -7.1250 0.0000 -0.0000 -4.5150 48.5975 -0.4014 0.0000 0.0000 0.0000 79.6208 -7.4986 57.9764 -109.2925 58.5458 -76.6262 0.0000 -0.0000 -11.5453 -22.2762 14.8142 -5.9794 7.1250 -0.0000 -0.0000 3.5648 -14.0516 2.5977
0.00 0.00 0.00 180.9350 214.6560 179.6200 0.0000 0.0000 0.0000 -20.4668 -4.7874 -15.8018 1.4218 7.5406 21.3271 -0.2871 -10.3879 -0.8004 0.0027 -0.3385 -0.9300 0.0000 0.0000 0.0000 20.3773 -0.2351 5.8632 -3.7144 -11.7703 34.9242 0.8013 16.1098 10.2839 -0.8092 -5.7408 16.0342 -1.4536 1.4285 9.7748 0.5219 1.7527 1.1786 1.1269 0.8893 -4.3134 -13.2934 -8.4377 -14.0585 11.4294 -13.1511 32.5908 4.6862 -5.9797 15.5584 -0.0000 -0.0000 0.0000 -76.5661 7.0182 60.9838 106.2144 -58.9829 -73.9941 -0.0000 -0.0000 11.3903 24.3579 16.5279 7.3390 -7.1250 0.0000 -0.0000 -3.3418 47.9939 -0.2471 -0.0000 -0.0000 0.0000 80.5091 -8.9115 56.9722 -108.8075 58.6203 -76.2123 0.0000 -0.0000 -11.2963 -21.7110 14.4101 -5.6589 7.1250 -0.0000 -0.0000 3.9269 -14.5459 2.8215
